<svg id="Layer_1" fill="#fff" enable-background="new 0 0 511.537 511.537" height="512" viewBox="0 0 511.537 511.537" width="512" xmlns="http://www.w3.org/2000/svg"><path d="m367.769 47.769c-43.88 0-84.92 20.01-112 53.49-27.08-33.48-68.12-53.49-112-53.49-108.163 0-199.208 123.256-103.41 254.2 20.8 28.43 49.63 56.86 85.68 84.5 60.68 46.53 120.45 74.63 122.96 75.8 4.3 2 9.24 2 13.54 0 2.51-1.17 62.28-29.27 122.96-75.8 36.05-27.64 64.88-56.07 85.68-84.5 95.943-131.143 4.404-254.2-103.41-254.2zm.51 78.02c2.21-8.55 10.93-13.7 19.49-11.49 3.4.88 6.77 1.99 10.02 3.31 8.19 3.33 12.13 12.66 8.81 20.85-2.53 6.21-8.52 9.98-14.84 9.98-4.684 0-6.002-1.616-11.99-3.15-8.56-2.21-13.7-10.94-11.49-19.5zm-20.03 208.59c-6.974 5.392-17.028 4.13-22.44-2.88-5.4-6.99-4.12-17.04 2.87-22.44 39.335-30.395 102.272-89.116 83.6-135.27-3.33-8.19.61-17.52 8.8-20.85 8.19-3.32 17.52.62 20.85 8.81 25.836 63.755-39.118 130.462-93.68 172.63z"/></svg>